<svg xmlns="http://www.w3.org/2000/svg" width="29" height="30" viewBox="0 0 29 30">
  <g id="Group_4739" data-name="Group 4739" transform="translate(-2553 22697)">
    <rect id="Rectangle_1288" data-name="Rectangle 1288" width="29" height="30" transform="translate(2553 -22697)" fill="#1e8972"/>
    <path id="Icon_awesome-linkedin" data-name="Icon awesome-linkedin" d="M11.143,2.25H.854A.861.861,0,0,0,0,3.115v10.27a.861.861,0,0,0,.854.865H11.143A.863.863,0,0,0,12,13.385V3.115A.863.863,0,0,0,11.143,2.25ZM3.627,12.536H1.848V6.809H3.629v5.727ZM2.738,6.027A1.031,1.031,0,1,1,3.769,5,1.032,1.032,0,0,1,2.738,6.027Zm7.556,6.509H8.515V9.75c0-.664-.013-1.519-.924-1.519-.927,0-1.069.723-1.069,1.471v2.834H4.744V6.809H6.45v.782h.024a1.873,1.873,0,0,1,1.685-.924c1.8,0,2.135,1.187,2.135,2.729Z" transform="translate(2561.5 -22690.25)" fill="#fff"/>
  </g>
</svg>
