<svg xmlns="http://www.w3.org/2000/svg" width="29" height="30" viewBox="0 0 29 30">
  <g id="Group_4738" data-name="Group 4738" transform="translate(-2633 22692)">
    <g id="Group_4736" data-name="Group 4736">
      <rect id="Rectangle_1290" data-name="Rectangle 1290" width="29" height="30" transform="translate(2633 -22692)" fill="#1e8972"/>
      <path id="Icon_zocial-email" data-name="Icon zocial-email" d="M.072,13.024V4.938q0-.014.045-.267L5.163,8.742.132,13.3a1.13,1.13,0,0,1-.06-.281ZM.742,4.11a.676.676,0,0,1,.253-.042h13.59a.889.889,0,0,1,.268.042L9.792,8.195l-.67.505L7.8,9.725,6.473,8.7,5.8,8.195Zm.015,9.742,5.076-4.59,1.965,1.5,1.965-1.5,5.076,4.59a.753.753,0,0,1-.253.042H.995a.71.71,0,0,1-.238-.042Zm9.676-5.109,5.031-4.071a.794.794,0,0,1,.045.267v8.085a1.019,1.019,0,0,1-.045.281Z" transform="translate(2639.71 -22685.98)" fill="#fff"/>
    </g>
  </g>
</svg>
