<svg xmlns="http://www.w3.org/2000/svg" width="29" height="30" viewBox="0 0 29 30">
  <g id="Group_4737" data-name="Group 4737" transform="translate(-2592 22695)">
    <rect id="Rectangle_1289" data-name="Rectangle 1289" width="29" height="30" transform="translate(2592 -22695)" fill="#1e8972"/>
    <path id="Icon_metro-youtube-play" data-name="Icon metro-youtube-play" d="M15.428,12.61a.533.533,0,0,0-.3-.506l-5.143-3a.642.642,0,0,0-.653-.019A.554.554,0,0,0,9,9.61v6a.554.554,0,0,0,.331.525.734.734,0,0,0,.311.075.6.6,0,0,0,.342-.094l5.143-3a.533.533,0,0,0,.3-.506Zm5.143,0q0,.9-.01,1.406t-.085,1.28a9.73,9.73,0,0,1-.226,1.383,2.16,2.16,0,0,1-.693,1.153,2.186,2.186,0,0,1-1.246.544q-2.23.234-6.74.234t-6.74-.234a2.21,2.21,0,0,1-1.251-.544,2.148,2.148,0,0,1-.7-1.153A10.883,10.883,0,0,1,2.666,15.3q-.075-.773-.085-1.28t-.01-1.406q0-.9.01-1.406t.085-1.28a9.73,9.73,0,0,1,.226-1.383,2.16,2.16,0,0,1,.693-1.153,2.186,2.186,0,0,1,1.246-.544q2.23-.234,6.74-.234t6.74.234a2.21,2.21,0,0,1,1.251.544,2.148,2.148,0,0,1,.7,1.153,10.883,10.883,0,0,1,.216,1.383q.075.773.085,1.28T20.571,12.61Z" transform="translate(2594.929 -22692.611)" fill="#fff"/>
  </g>
</svg>
